<?xml version="1.0" encoding="utf-8"?>
<!-- Generator: Adobe Illustrator 16.0.0, SVG Export Plug-In . SVG Version: 6.00 Build 0)  -->
<!DOCTYPE svg PUBLIC "-//W3C//DTD SVG 1.1//EN" "http://www.w3.org/Graphics/SVG/1.1/DTD/svg11.dtd">
<svg version="1.1" id="Layer_1" xmlns="http://www.w3.org/2000/svg" xmlns:xlink="http://www.w3.org/1999/xlink" x="0px" y="0px"
	 width="66.452px" height="64.517px" viewBox="0 0 66.452 64.517" enable-background="new 0 0 66.452 64.517" xml:space="preserve">
<path fill="#FFFFFF" d="M57.81,6.878c-0.32-0.216-0.777-0.248-1.117-0.083l-4.73,2.258c-0.558,0.271-0.795,0.943-0.527,1.501
	c0.256,0.533,0.962,0.786,1.5,0.528l0.985-0.469l-5.61,8.435c-0.951-0.718-2.062-1.188-3.241-1.371v-1.445
	c0-0.62-0.505-1.125-1.124-1.125H27.428c-0.62,0-1.125,0.505-1.125,1.125v1.444c-3.528,0.548-6.159,3.599-6.159,7.197
	c0,3.601,2.63,6.651,6.159,7.198v0.328c0,2.624,1.106,5.143,2.97,6.79l-2.336,3.733l-2.724-0.567
	c-0.408-0.082-0.814,0.067-1.081,0.373l-5.502,6.439c-0.372-0.137-0.763-0.205-1.165-0.205c-1.873,0-3.396,1.523-3.396,3.396
	c0,1.871,1.523,3.393,3.396,3.393s3.396-1.521,3.396-3.393c0-0.627-0.17-1.231-0.494-1.761l5.046-5.902l2.837,0.59
	c0.467,0.094,0.94-0.12,1.177-0.507l2.722-4.35c0.828,0.389,1.694,0.616,2.601,0.681l-2.922,5.068h-2.093
	c-0.62,0-1.125,0.504-1.125,1.124v1.79h-0.538c-0.62,0-1.125,0.504-1.125,1.124v4.486c0,0.62,0.504,1.124,1.125,1.124h17.223
	c0.62,0,1.124-0.504,1.124-1.124v-4.486c0-0.62-0.504-1.124-1.124-1.124h-0.534v-1.79c0-0.62-0.504-1.124-1.125-1.124h-2.094
	l-2.922-5.07c4.113-0.301,7.411-4.063,7.441-8.578c0.006-0.039,0.007-0.084,0.007-0.131V32.07c3.528-0.547,6.159-3.598,6.159-7.197
	c0-1.508-0.455-2.945-1.318-4.172l5.813-8.742l-0.077,0.987c-0.045,0.616,0.424,1.158,1.045,1.208l0.078,0.001
	c0.594,0,1.074-0.445,1.119-1.035l0.407-5.222C58.332,7.496,58.151,7.115,57.81,6.878z M48.523,22.784
	c0.299,0.65,0.455,1.364,0.455,2.089c0,2.339-1.658,4.392-3.91,4.907v-1.801L48.523,22.784z M45.068,23.919v-3.953
	c0.726,0.166,1.406,0.491,1.994,0.956L45.068,23.919z M28.197,53.578v-2.237h14.974v2.237H28.197z M29.859,49.092v-0.666h11.652
	v0.666H29.859z M33.423,46.178l2.263-3.923l2.261,3.923H33.423z M38.976,33.081l-3.681-1.679c-0.494-0.222-1.135-0.026-1.418,0.429
	l-3.389,5.419c-1.234-1.232-1.936-2.98-1.936-4.852V17.354h14.265l0.001,9.945L38.976,33.081z M37.085,38.881h-2.798
	c-0.667,0-1.316-0.127-1.931-0.379l2.906-4.641l3.651,1.662c0.479,0.223,1.111,0.04,1.406-0.4l2.5-3.759l-0.001,1.035
	C42.819,35.974,40.248,38.881,37.085,38.881z M26.303,19.966v9.814c-2.251-0.517-3.91-2.569-3.91-4.907S24.052,20.482,26.303,19.966
	z M16.465,53.501c-0.632,0-1.146-0.513-1.146-1.143c0-0.632,0.514-1.146,1.146-1.146s1.147,0.515,1.147,1.146
	C17.612,52.988,17.098,53.501,16.465,53.501z"/>
</svg>
