<?xml version="1.0" encoding="utf-8"?>
<!-- Generator: Adobe Illustrator 16.0.0, SVG Export Plug-In . SVG Version: 6.00 Build 0)  -->
<!DOCTYPE svg PUBLIC "-//W3C//DTD SVG 1.1//EN" "http://www.w3.org/Graphics/SVG/1.1/DTD/svg11.dtd">
<svg version="1.1" id="Layer_1" xmlns="http://www.w3.org/2000/svg" xmlns:xlink="http://www.w3.org/1999/xlink" x="0px" y="0px"
	 width="113.386px" height="113.387px" viewBox="0 0 113.386 113.387" enable-background="new 0 0 113.386 113.387"
	 xml:space="preserve">
<g>
	<path fill="#FFFFFF" d="M32.098,61.244c-11.156,0-20.232-9.075-20.232-20.231c0-11.153,9.076-20.229,20.232-20.229
		c11.156,0,20.23,9.076,20.23,20.229C52.33,52.169,43.253,61.244,32.098,61.244z M32.098,29.66c-6.261,0-11.355,5.091-11.355,11.353
		c0,6.264,5.093,11.357,11.355,11.357c6.262,0,11.354-5.094,11.354-11.357S38.359,29.66,32.098,29.66z"/>
	<path fill="#FFFFFF" d="M71.027,101.718c-11.154,0-20.231-9.075-20.231-20.229c0-11.155,9.074-20.229,20.231-20.229
		c11.156,0,20.232,9.074,20.232,20.229C91.259,92.643,82.184,101.718,71.027,101.718z M71.027,70.134
		c-6.264,0-11.357,5.094-11.357,11.355c0,6.261,5.094,11.354,11.357,11.354s11.354-5.094,11.354-11.354
		C82.382,75.228,77.291,70.134,71.027,70.134z"/>
	<g>
		
			<rect x="46.709" y="10.774" transform="matrix(-0.693 -0.7209 0.7209 -0.693 41.9931 141.61)" fill="#FFFFFF" width="8.873" height="102.181"/>
		<g>
			<polygon fill="#FFFFFF" points="89.898,42.839 84.81,29.489 71.668,23.885 103.247,11.758 			"/>
		</g>
	</g>
</g>
</svg>
