<?xml version="1.0" encoding="utf-8"?>
<!-- Generator: Adobe Illustrator 16.0.0, SVG Export Plug-In . SVG Version: 6.00 Build 0)  -->
<!DOCTYPE svg PUBLIC "-//W3C//DTD SVG 1.1//EN" "http://www.w3.org/Graphics/SVG/1.1/DTD/svg11.dtd">
<svg version="1.1" id="Layer_1" xmlns="http://www.w3.org/2000/svg" xmlns:xlink="http://www.w3.org/1999/xlink" x="0px" y="0px"
	 width="111.613px" height="99.354px" viewBox="0 0 111.613 99.354" enable-background="new 0 0 111.613 99.354"
	 xml:space="preserve">
<g>
	<path fill="#FFFFFF" d="M69.429,66.632c-0.584-0.389-1.449-0.388-2.316,0.083c-3.112,1.979-6.751,3.026-10.523,3.026
		c-8.301,0-15.867-5.469-18.427-13.309h21.569c1.246,0,2.224-0.977,2.224-2.223c0-1.206-1.019-2.225-2.224-2.225H37.256
		c-0.136-1.413-0.044-2.755,0.067-3.888h22.408c1.246,0,2.224-0.977,2.224-2.225c0-1.247-0.978-2.224-2.224-2.224H38.368
		c2.814-7.639,9.827-12.767,17.476-12.767c3.992,0,7.089,0.704,10.114,2.315c1.061,0.417,2.218,0.033,2.811-0.92
		c0.309-0.506,0.406-1.12,0.271-1.678c-0.133-0.563-0.484-1.036-1.059-1.389c-3.586-1.894-7.529-2.775-12.41-2.775
		c-9.922,0-18.906,7.075-21.863,17.214h-6.126c-1.206,0-2.224,1.019-2.224,2.224c0,1.206,1.018,2.225,2.224,2.225h5.293
		c-0.11,1.134-0.202,2.475-0.067,3.888h-5.226c-1.185,0-2.224,1.039-2.224,2.225c0,1.205,1.018,2.223,2.224,2.223h5.987
		c1.158,5.063,4.223,9.646,8.634,12.908c4.233,3.128,9.365,4.85,14.451,4.85c4.548,0,9.015-1.295,12.906-3.736
		c0.587-0.353,0.934-0.965,0.951-1.674C70.541,67.948,70.12,67.106,69.429,66.632z"/>
	<path fill="#FFFFFF" d="M55.807,7.438c-23.291,0-42.239,18.948-42.239,42.238c0,23.292,18.948,42.241,42.239,42.241
		s42.239-18.949,42.239-42.241C98.046,26.385,79.098,7.438,55.807,7.438z M55.807,87.382c-20.79,0-37.704-16.915-37.704-37.706
		c0-20.79,16.914-37.703,37.704-37.703s37.704,16.914,37.704,37.703C93.511,70.467,76.597,87.382,55.807,87.382z"/>
</g>
</svg>
