<?xml version="1.0" encoding="utf-8"?>
<!-- Generator: Adobe Illustrator 16.0.0, SVG Export Plug-In . SVG Version: 6.00 Build 0)  -->
<!DOCTYPE svg PUBLIC "-//W3C//DTD SVG 1.1//EN" "http://www.w3.org/Graphics/SVG/1.1/DTD/svg11.dtd">
<svg version="1.1" id="Layer_1" xmlns="http://www.w3.org/2000/svg" xmlns:xlink="http://www.w3.org/1999/xlink" x="0px" y="0px"
	 width="111.613px" height="99.354px" viewBox="0 0 111.613 99.354" enable-background="new 0 0 111.613 99.354"
	 xml:space="preserve">
<path fill="#FFFFFF" d="M92.301,70.732c3.582-6.192,5.644-13.319,5.644-20.976c0-23.224-18.887-42.096-42.109-42.113L55.806,7.61
	L55.78,7.664C32.556,7.679,13.67,26.577,13.67,49.805c0,7.653,2.062,14.734,5.645,20.927l-0.044-0.021h0.089
	c7.302,12.939,20.899,21.034,36.448,21.034s29.146-8.095,36.449-21.034h0.091L92.301,70.732z M93.963,49.808
	c0,6.098-1.444,11.858-3.998,16.977L58.18,11.731C78.117,12.962,93.963,29.565,93.963,49.808z M68.152,36.868h-24.69l12.345-21.383
	L68.152,36.868z M68.748,48.198c-1.992-3.217-3.957-5.359-7.145-7.35h7.145V48.198z M42.867,59.379
	c0.995,3.365,4.191,6.354,7.586,7.351h-7.586V59.379z M45.688,53.789c0-5.58,4.539-10.121,10.12-10.121s10.12,4.541,10.12,10.121
	c0,5.579-4.539,10.119-10.12,10.119S45.688,59.368,45.688,53.789z M68.748,59.379v7.351H61.16
	C64.557,65.732,66.756,62.744,68.748,59.379z M42.867,48.198V40.85h7.145C46.823,42.839,43.862,44.982,42.867,48.198z
	 M38.885,66.729H26.163l12.724-21.837v21.837H38.885z M72.729,44.893L85.45,66.73H72.729V44.893z M17.651,49.808
	c0-20.242,15.846-36.846,35.782-38.076L21.651,66.785C19.096,61.668,17.651,55.904,17.651,49.808z M55.806,87.763
	c-13.241,0-24.924-6.104-31.77-17.053h63.539C80.73,81.658,69.049,87.763,55.806,87.763z"/>
</svg>
