<?xml version="1.0" encoding="utf-8"?>
<!-- Generator: Adobe Illustrator 16.0.0, SVG Export Plug-In . SVG Version: 6.00 Build 0)  -->
<!DOCTYPE svg PUBLIC "-//W3C//DTD SVG 1.1//EN" "http://www.w3.org/Graphics/SVG/1.1/DTD/svg11.dtd">
<svg version="1.1" id="Layer_1" xmlns="http://www.w3.org/2000/svg" xmlns:xlink="http://www.w3.org/1999/xlink" x="0px" y="0px"
	 width="113.386px" height="113.387px" viewBox="0 0 113.386 113.387" enable-background="new 0 0 113.386 113.387"
	 xml:space="preserve">
<path fill="#FFFFFF" d="M96.716,96.728L60.003,33.159L74.853,7.4c0.793-1.376,0.325-3.131-1.051-3.923
	c-1.376-0.793-3.134-0.324-3.927,1.054L56.688,27.406L43.5,4.531c-0.793-1.378-2.55-1.847-3.923-1.054
	C38.202,4.27,37.729,6.024,38.521,7.4l14.85,25.759l-36.7,63.568c-4.308,7.461-0.781,13.567,7.834,13.567h64.376
	C97.497,110.295,101.023,104.188,96.716,96.728z M72.66,85.204c-0.144,0.351-0.091,0.549-0.467,0.663
	c-1.094,0.679-2.115,0.48-1.776,0.556c0.038,0.018-0.922-0.049-0.534,0.047c-0.152-0.081-1.163-0.016-1.041,0.011
	c-0.062-0.019-0.145-0.04-0.106-0.092c0.262,0.077-0.226-0.24-0.439,0.168c-0.914-0.709-3.442,0.123-4.765-0.381
	c-0.157-0.341-0.781-0.072-0.683,0.038c0.115-0.11-0.053,0.633,0.115,0.941c0.054,0.5,0.419,1.095,0.499,0.938
	c0.351,0.112-0.068,0.744,0.439,1.062c0.026,0.053,0.153,0.628,0.129,0.719c0.309,0.261,0.957,2.879,0.912,3.096
	c-0.119,0.119,0.065,0.953,0.198,0.88c0.072,0.147,0.045,0.219-0.092,0.219c0.049,0.042,0.137,0.103,0.145,0.16
	c-0.053-0.013-0.145-0.036-0.161,0.026c-0.049,0.18,0.686,1.159,0.812,1.376c-0.099-0.053,0.081,0.4-0.026,0.363
	c0.077,0.124-0.274,0.22-0.233,0.334c-0.141-0.076-0.534,0.035-0.583-0.198c-0.16,0.092-0.171,0.198-0.468-0.319
	c-0.081,0-0.531-0.204-0.45-0.333c-0.015,0.031-0.195-0.361-0.412-0.472c0.083,0.02-1.861-1.909-1.895-1.941
	c-0.694-0.568-3.202-3.528-3.19-3.453c0.045-0.104-0.477-0.251-0.354-0.411c-0.019-0.316-0.194-0.209-0.324-0.279
	c-0.062-0.037-0.329-0.228-0.419,0.205c-0.096-0.019-0.077,0.177-0.134,0.397c0.038,0.126-0.274,0.298-0.108,0.443
	c-0.06-0.059-0.071,0.354-0.159,0.348c-0.088,0.363-0.625,1.261-0.619,1.183c-0.026,0.279-0.212,0.155-0.232,0.414
	c-0.077,0.457-0.213,1.253-0.515,1.153c-0.617,0.269-0.324,0.611-0.32,0.585c-0.125,0.393-0.74,1.302-0.725,1.302
	c-0.358-0.113-0.819,2.106-0.83,2.139c-0.11-0.032-0.244,0.433-0.362,0.455c-0.343,0.161-0.53,1.171-1.305,0.846
	c0,0-0.3-0.455-0.25-0.318c-0.328-0.155-0.157-0.807-0.229-1.153c-0.03-0.145,0.072-0.693,0.137-0.501
	c0.092-0.292,0.119-0.593,0.077-0.901c0.011,0.133-0.084-0.79-0.267-0.843c0.43-0.079-0.317-0.157,0.039-0.851
	c0.015,0.08,0.171-0.152,0.129-0.045c0.047-0.081,0.107-0.7-0.083-0.649c-0.004,0.009-0.012,0.014-0.019,0.001
	c0.007-0.004,0.013,0,0.019-0.001c0.009-0.018,0.015-0.055,0.016-0.088c-0.011,0.019-0.019,0.033-0.021,0.032
	c0.017-0.131,0.023-0.092,0.021-0.032c0.061-0.105,0.235-0.472,0.235-0.472c0.434-0.213,0.172-0.754,0.164-0.917
	c0.019-0.311-0.064-1.161,0.003-1.005c-0.148-0.341-0.136-0.259-0.369-0.33c-0.115-0.183,0.216-0.534,0.213-0.409
	c0.118-0.151,0.068-1.01,0.122-1.317c-0.007-0.013-0.03-0.189-0.22-0.208c-0.081,0.302-2.421,0.788-2.505,0.743
	c-0.274-0.135-1.246,0.199-1.059,0.162c-0.195,0.22-0.805,0.323-1.071,0.446c0,0-0.973,0.35-1.029,0.342
	c-0.042,0.134-1.711,0.542-1.689,0.546c-0.133-0.115-1.266-0.131-1.612-0.019c0,0-0.358,0.156-0.412,0.175
	c-0.057,0.011-0.781-0.042-0.819-0.131c-0.042-0.083-0.141-0.083-0.324-0.126c-0.172-0.037-0.091-0.225-0.061-0.285
	c0.019-0.072,0.164-0.243,0.164-0.243l-0.222-0.096l0.138-0.263c0,0,0.557-0.549,0.633-0.58c0.091-0.034,0.214-0.179,0.297-0.308
	c0.083-0.127,0.209-0.248,0.209-0.248l0.896-0.416c0.377-0.19,1.307-1.665,1.673-1.562l0.412-0.535
	c0.05-0.202,0.462-0.353,0.431-0.381c0.038,0.008,0.038-0.019,0.046-0.05c0.24-0.644,2.985-1.874,2.326-3.148
	c-0.202-0.167-0.458-0.667-1.061-0.639c-0.239-0.25-0.213-0.22-0.285-0.303c0.16,0.012-0.343-0.258-0.225-0.152
	c-0.073,0.026-0.298-0.327-0.367-0.327c-0.529,0.321-2.036-1.707-2.771-1.274c0.126-0.448-0.664-0.251-0.587-0.458
	c-0.48-0.286-0.682-0.451-0.686-0.454c-0.205-0.153-1.569-1.175-1.625-1.191c0,0,0.351-0.428,0.397-0.451
	c-0.058-0.089,0.224,0.034,0.293,0.047c0.088-0.013,0.644-0.327,0.591-0.154c0.125,0.209,0.572-0.128,0.549-0.104
	c0.038,0.142,0.576-0.034,0.53-0.016c0,0.016,0.564-0.008,0.583-0.004c0.054,0.016,0.348-0.024,0.363-0.055
	c0.259,0.126,0.305-0.072,0.526,0.073c-0.061-0.04,0.336,0.075,0.394,0.091c-0.088-0.021,0.296-0.1,0.266-0.012
	c-0.012,0.064,0.381-0.154,0.396-0.164c-0.232,0.138,0.697-0.38,0.633-0.13c-0.149,0.323,0.846-0.039,0.712,0.112
	c0.004-0.031,0.755,0.169,0.763,0.141c0.259-0.172,1.174,0.201,1.285,0.224c0.118,0.034,0.225,0.088,0.335,0.027
	c0.363-0.097,0.885-0.229,1.059-0.435c0.108,0.03-0.407-0.582-0.278-0.686c0.275-1.138-1.696-2.731-1.575-3.602
	c-0.02-0.022-0.116-0.408,0.008-0.472c0.123-0.416-0.221-0.625-0.389-0.923c-0.156-0.103-0.03-0.248-0.03-0.256l-0.081-0.093
	c-0.045,0.154-0.167-0.889-0.141-1.091c0,0-0.237-1.406-0.183-1.649c0.069,0.076,0.103,0.3,0.282,0.226
	c-0.119-0.158,0.441-0.805,0.857-0.906c0.187,0.217,0.45,0.827,0.442,0.841c1.101,0.963,1.688,0.937,2.43,1.925
	c0.068,0.059,1.135,1.03,1.21,1.101c0.248,0.06,0.29,0.557,0.286,0.576c0.034,0.558,1.879,1.779,2.004,1.279
	c0.061-0.005,0.64-0.692,0.602-0.544c0.004,0.095,0.443-1,0.435-0.963c-0.057,0.014,0.324-0.339,0.191-0.253
	c0.175-0.326,0.399-0.631,0.591-0.951c-0.062,0.134,0.495-0.553,0.502-0.58c0.027-0.225,0.15-0.419,0.259-0.396
	c-0.019-0.004,0.98-1.504,0.896-1.425c0.016-0.058,1.369-2.232,1.734-2.312c-0.075,0.104,0.618,0.095,0.744,0.588
	c-0.031,0.167,0.202,0.175,0.19,0.422c-0.141,0.237,0.157,0.476,0.106,0.798c-0.141-0.18-0.258,4.498,0.019,5.144
	c0.126,0.428-0.049,1.029-0.156,1.06c-0.122-0.065,0.012,0.121-0.035,0.149c-0.038,0.148,0.031,0.219-0.042,0.164
	c-0.111,0.119-0.111,0.229,0.003,0.347c-0.159-0.143,0.264,0.337,0.13,0.674c-0.107,0.16-0.126,0.335-0.046,0.512
	c0,0.029,1.696-0.509,1.459-0.541c0.045,0.012,0.055,0.006,0.057,0.002c0-0.004,0.002-0.004,0,0c0,0.002,0,0.004,0.004,0.012
	c0.031,0.233,0.683-0.373,0.641-0.23c0,0.025,0.023,0.031,0.054,0.045c-0.031-0.014,0.339-0.125,0.446-0.165
	c0.053-0.06,0.035,0,0.19,0.04c0.205,0.039,0.271-0.126,0.26-0.188c0.132,0.035,0.488-0.112,0.434-0.131
	c0.469-0.162,0.569-0.264,0.683-0.326c-0.03,0.021-0.034,0.084,0.099-0.137c0.313,0.067,0.519,0.024,0.484,0.042
	c0.4-0.134,1.282-0.718,1.635-0.403c0.161-0.035,0.477-0.311,0.717-0.251c0.053,0.015,0.114,0.034,0.186-0.013
	c0.233-0.053,1.194-0.121,0.877-0.319c0.237-0.438,1.136,0.267,1.14,0.234c0.053,0.074,0.076,0.14,0.084,0.195
	c0.005,0.002,0.008,0.011,0.008,0.041c0-0.011-0.006-0.026-0.008-0.041c-0.028-0.008-0.132,0.31-0.209,0.418
	c0-0.029-2.409,2.567-2.643,2.796c-1.2,1.13-2.332,2.454-3.499,3.784c0.64-0.116,1.849,1.709,2.592,1.87
	c1.925,0.503,3.461,1.93,5.394,2.412C72.657,84.776,72.664,85.083,72.66,85.204c0.004-0.012,0.008-0.021,0.013-0.035
	C72.649,85.284,72.657,85.273,72.66,85.204z"/>
</svg>
