<?xml version="1.0" encoding="utf-8"?>
<!-- Generator: Adobe Illustrator 16.0.0, SVG Export Plug-In . SVG Version: 6.00 Build 0)  -->
<!DOCTYPE svg PUBLIC "-//W3C//DTD SVG 1.1//EN" "http://www.w3.org/Graphics/SVG/1.1/DTD/svg11.dtd">
<svg version="1.1" id="Layer_1" xmlns="http://www.w3.org/2000/svg" xmlns:xlink="http://www.w3.org/1999/xlink" x="0px" y="0px"
	 width="111.613px" height="99.354px" viewBox="0 0 111.613 99.354" enable-background="new 0 0 111.613 99.354"
	 xml:space="preserve">
<path fill="#FFFFFF" d="M106.355,3.904c-0.74-0.394-1.637-0.348-2.332,0.12L85.689,16.358c-1.039,0.699-1.314,2.108-0.615,3.147
	c0.698,1.039,2.107,1.315,3.146,0.616l10.816-7.276C86.811,48.246,62.945,67.782,44.802,78.002
	C24.45,89.466,6.653,92.057,6.476,92.081c-1.24,0.174-2.105,1.319-1.932,2.56c0.158,1.134,1.129,1.955,2.242,1.955
	c0.104,0,0.209-0.007,0.314-0.022c0.753-0.104,18.688-2.694,39.767-14.529c18.748-10.525,43.354-30.593,56.154-66.869v12.397
	c0,1.252,1.016,2.268,2.268,2.268s2.268-1.015,2.268-2.268V5.906C107.557,5.068,107.095,4.298,106.355,3.904z"/>
</svg>
