<?xml version="1.0" encoding="utf-8"?>
<!-- Generator: Adobe Illustrator 16.0.0, SVG Export Plug-In . SVG Version: 6.00 Build 0)  -->
<!DOCTYPE svg PUBLIC "-//W3C//DTD SVG 1.1//EN" "http://www.w3.org/Graphics/SVG/1.1/DTD/svg11.dtd">
<svg version="1.1" id="Layer_1" xmlns="http://www.w3.org/2000/svg" xmlns:xlink="http://www.w3.org/1999/xlink" x="0px" y="0px"
	 width="111.613px" height="99.354px" viewBox="0 0 111.613 99.354" enable-background="new 0 0 111.613 99.354"
	 xml:space="preserve">
<path fill="#FFFFFF" d="M98.576,2.67c-0.477-0.321-1.119-0.369-1.629-0.122l-9.209,4.395c-0.814,0.394-1.158,1.375-0.77,2.187
	c0.383,0.797,1.385,1.153,2.186,0.77l3.721-1.773L80.514,26.711c-2.002-1.651-4.406-2.682-6.99-2.993v-3.295
	c0-0.903-0.734-1.638-1.637-1.638H39.728c-0.902,0-1.636,0.734-1.636,1.638v3.294C31.237,24.541,26.1,30.313,26.1,37.249
	c0,6.937,5.137,12.71,11.992,13.533v1.121c0,5.134,2.219,10.014,5.949,13.11l-5.003,7.997l-5.675-1.18
	c-0.587-0.117-1.188,0.096-1.578,0.542L20.814,85.21c-0.766-0.336-1.582-0.507-2.429-0.507c-3.342,0-6.06,2.718-6.06,6.06
	c0,3.338,2.718,6.055,6.06,6.055s6.06-2.717,6.06-6.055c0-1.256-0.379-2.451-1.099-3.473l10.308-12.053l5.837,1.213
	c0.685,0.135,1.366-0.166,1.717-0.738l5.562-8.891c1.952,0.996,4.026,1.508,6.134,1.519c0.021,0.003,0.044,0.005,0.067,0.007
	L46.667,79.28h-4.394c-0.902,0-1.637,0.734-1.637,1.637v4.037h-1.599c-0.903,0-1.638,0.734-1.638,1.637v8.736
	c0,0.902,0.734,1.637,1.638,1.637H72.57c0.902,0,1.637-0.734,1.637-1.637v-8.736c0-0.902-0.734-1.637-1.637-1.637h-1.592v-4.037
	c0-0.902-0.734-1.637-1.637-1.637h-4.395l-6.305-10.934c0.016,0,0.025-0.002,0.029-0.004c8.123-0.076,14.783-7.389,14.846-16.264
	c0.008-0.053,0.008-0.114,0.008-0.176v-1.121c6.855-0.824,11.992-6.597,11.992-13.533c0-2.95-0.928-5.749-2.686-8.109l12.705-19.104
	l-0.314,4.034c-0.066,0.896,0.607,1.686,1.527,1.761h0.109c0.865,0,1.564-0.648,1.629-1.508l0.793-10.171
	C99.33,3.566,99.068,3.013,98.576,2.67z M82.24,37.249c0,5.092-3.725,9.432-8.717,10.224V43.13l7.338-11.034
	C81.766,33.657,82.24,35.43,82.24,37.249z M73.523,37.218V27.026c1.92,0.305,3.695,1.137,5.168,2.422L73.523,37.218z M40.675,93.69
	v-5.459h30.258v5.459H40.675z M43.911,84.954v-2.399h23.792v2.399H43.911z M55.804,69.987l5.36,9.293H50.445L55.804,69.987z
	 M70.248,42.141l-7.836,11.787l-7.595-3.462c-0.734-0.331-1.64-0.058-2.065,0.623L45.798,62.21
	c-2.82-2.518-4.432-6.254-4.432-10.309V22.06h28.881V42.141z M54.77,54.046l7.552,3.438c0.717,0.331,1.607,0.073,2.049-0.583
	l5.879-8.84l-0.002,3.842c0,7.262-5.256,13.17-11.715,13.17h-5.451c-1.592,0-3.125-0.35-4.564-1.041L54.77,54.046z M38.092,27.025
	v20.447c-4.992-0.792-8.718-5.131-8.718-10.224C29.375,32.158,33.1,27.818,38.092,27.025z M18.385,93.54
	c-1.535,0-2.785-1.246-2.785-2.777c0-1.535,1.25-2.783,2.785-2.783s2.785,1.248,2.785,2.783C21.17,92.294,19.92,93.54,18.385,93.54z
	"/>
</svg>
