<?xml version="1.0" encoding="utf-8"?>
<!-- Generator: Adobe Illustrator 16.0.0, SVG Export Plug-In . SVG Version: 6.00 Build 0)  -->
<!DOCTYPE svg PUBLIC "-//W3C//DTD SVG 1.1//EN" "http://www.w3.org/Graphics/SVG/1.1/DTD/svg11.dtd">
<svg version="1.1" id="Layer_1" xmlns="http://www.w3.org/2000/svg" xmlns:xlink="http://www.w3.org/1999/xlink" x="0px" y="0px"
	 width="66.452px" height="64.517px" viewBox="0 0 66.452 64.517" enable-background="new 0 0 66.452 64.517" xml:space="preserve">
<g>
	<g>
		<path fill="#FFFFFF" d="M46.505,39.531c-0.748,0-1.323,0.576-1.323,1.325V49.3H13.98V21.091h17.388
			c0.748,0,1.324-0.575,1.324-1.324s-0.576-1.324-1.324-1.324H13.692c-1.324,0-2.36,1.094-2.36,2.359v28.728
			c0,1.324,1.094,2.359,2.36,2.359h31.721c1.323,0,2.359-1.093,2.359-2.359v-8.673C47.83,40.165,47.197,39.531,46.505,39.531z"/>
	</g>
	<g>
		<path fill="#FFFFFF" d="M17.722,31.165h13.354c0.749,0,1.325-0.575,1.325-1.323c0-0.749-0.576-1.325-1.325-1.325H17.722
			c-0.749,0-1.324,0.576-1.324,1.325C16.398,30.532,16.973,31.165,17.722,31.165z"/>
	</g>
	<g>
		<path fill="#FFFFFF" d="M32.401,24.603c0-0.749-0.575-1.325-1.324-1.325H17.722c-0.749,0-1.324,0.576-1.324,1.325
			c0,0.748,0.575,1.324,1.324,1.324h13.356C31.826,25.927,32.401,25.351,32.401,24.603z"/>
	</g>
	<g>
		<path fill="#FFFFFF" d="M32.401,35.021c0-0.748-0.576-1.323-1.325-1.323H17.952c-0.748,0-1.323,0.575-1.323,1.323
			c0,0.749,0.575,1.324,1.323,1.324h13.124C31.825,36.346,32.401,35.771,32.401,35.021z"/>
	</g>
	<g>
		<path fill="#FFFFFF" d="M17.952,41.585h16.588c0.748,0,1.324-0.576,1.324-1.325c0-0.748-0.576-1.323-1.324-1.323H17.952
			c-0.748,0-1.323,0.575-1.323,1.323C16.629,41.009,17.204,41.585,17.952,41.585z"/>
	</g>
	<g>
		<path fill="#FFFFFF" d="M17.952,46.766h5.872c0.749,0,1.325-0.575,1.325-1.324c0-0.748-0.576-1.324-1.325-1.324h-5.872
			c-0.748,0-1.323,0.576-1.323,1.324C16.629,46.19,17.204,46.766,17.952,46.766z"/>
	</g>
	<g>
		<path fill="#FFFFFF" d="M33.724,46.766h5.872c0.749,0,1.325-0.575,1.325-1.324c0-0.748-0.576-1.324-1.325-1.324h-5.872
			c-0.748,0-1.323,0.576-1.323,1.324C32.401,46.19,32.976,46.766,33.724,46.766z"/>
	</g>
</g>
<g>
	<path fill="#FFFFFF" d="M45,37.818c-6.185,0-11.216-5.031-11.216-11.217c0-6.184,5.031-11.215,11.216-11.215
		c2.99,0,5.803,1.162,7.919,3.272c0.555,0.553,0.556,1.45,0.003,2.005c-0.552,0.554-1.449,0.555-2.005,0.003
		c-1.58-1.577-3.683-2.446-5.917-2.446c-4.621,0-8.381,3.76-8.381,8.381c0,4.622,3.76,8.383,8.381,8.383
		c4.143,0,7.709-3.088,8.296-7.182c0.111-0.776,0.834-1.307,1.604-1.202c0.774,0.111,1.313,0.83,1.202,1.604
		C55.317,33.686,50.544,37.818,45,37.818z"/>
</g>
<g>
	<path fill="#FFFFFF" d="M46.273,31.258c-0.352,0-0.701-0.13-0.973-0.386l-5.272-4.976c-0.569-0.538-0.595-1.435-0.058-2.004
		c0.537-0.568,1.434-0.595,2.003-0.059l4.386,4.14l13.33-10.427c0.616-0.482,1.508-0.373,1.989,0.243
		c0.482,0.616,0.374,1.507-0.243,1.989L47.146,30.957C46.888,31.158,46.581,31.258,46.273,31.258z"/>
</g>
</svg>
