<?xml version="1.0" encoding="utf-8"?>
<!-- Generator: Adobe Illustrator 16.0.0, SVG Export Plug-In . SVG Version: 6.00 Build 0)  -->
<!DOCTYPE svg PUBLIC "-//W3C//DTD SVG 1.1//EN" "http://www.w3.org/Graphics/SVG/1.1/DTD/svg11.dtd">
<svg version="1.1" id="Layer_1" xmlns="http://www.w3.org/2000/svg" xmlns:xlink="http://www.w3.org/1999/xlink" x="0px" y="0px"
	 width="66.452px" height="64.517px" viewBox="0 0 66.452 64.517" enable-background="new 0 0 66.452 64.517" xml:space="preserve">
<path fill="#FFFFFF" d="M26.032,45.288l-5.896-6.097c-0.338-0.363-0.59-0.646-1.023-0.646s-0.668,0.241-1.022,0.646l-5.897,6.097
	c-0.183,0.362-0.159,0.798,0.049,1.145c0.207,0.351,0.577,0.562,0.974,0.562h3.549v4.673c0,1.295,1.051,2.347,2.347,2.347
	s2.347-1.052,2.347-2.347v-4.673h3.552c0.396,0,0.767-0.212,0.973-0.562c0.111-0.187,0.17-0.4,0.17-0.615
	C26.154,45.636,26.114,45.456,26.032,45.288z"/>
<path fill="#FFFFFF" d="M39.647,39.655l-5.896-6.098c-0.339-0.363-0.59-0.646-1.023-0.646c-0.432,0-0.668,0.242-1.022,0.646
	l-5.898,6.098c-0.181,0.361-0.159,0.797,0.049,1.145c0.207,0.35,0.577,0.562,0.974,0.562h3.55v10.307
	c0,1.295,1.05,2.347,2.348,2.347c1.296,0,2.347-1.052,2.347-2.347V41.361h3.55c0.397,0,0.768-0.212,0.974-0.561
	c0.112-0.188,0.171-0.402,0.171-0.617C39.769,40.003,39.728,39.822,39.647,39.655z"/>
<path fill="#FFFFFF" d="M53.261,20.875l-5.896-6.097c-0.339-0.363-0.592-0.646-1.024-0.646s-0.667,0.24-1.021,0.646l-5.897,6.097
	c-0.183,0.363-0.158,0.798,0.049,1.145c0.207,0.351,0.576,0.563,0.974,0.563h3.551v29.086c0,1.295,1.049,2.347,2.346,2.347
	c1.298,0,2.348-1.052,2.348-2.347V22.582h3.551c0.396,0,0.769-0.212,0.975-0.561c0.111-0.188,0.17-0.402,0.17-0.616
	C53.384,21.222,53.343,21.042,53.261,20.875z"/>
<g>
	<path fill="#FFFFFF" d="M10.001,37.378c-0.746,0-1.354-0.6-1.363-1.348c-0.009-0.752,0.593-1.37,1.345-1.379
		c0.871-0.013,21.219-0.594,27.507-24.004c0.195-0.727,0.941-1.159,1.671-0.964c0.728,0.195,1.157,0.943,0.962,1.67
		C36.558,24.63,28.581,31.003,22.518,34.011c-6.574,3.26-12.261,3.364-12.5,3.367C10.012,37.378,10.006,37.378,10.001,37.378z"/>
</g>
</svg>
