<?xml version="1.0" encoding="utf-8"?>
<!-- Generator: Adobe Illustrator 16.0.0, SVG Export Plug-In . SVG Version: 6.00 Build 0)  -->
<!DOCTYPE svg PUBLIC "-//W3C//DTD SVG 1.1//EN" "http://www.w3.org/Graphics/SVG/1.1/DTD/svg11.dtd">
<svg version="1.1" id="Layer_1" xmlns="http://www.w3.org/2000/svg" xmlns:xlink="http://www.w3.org/1999/xlink" x="0px" y="0px"
	 width="66.453px" height="64.518px" viewBox="0 0 66.453 64.518" enable-background="new 0 0 66.453 64.518" xml:space="preserve">
<g>
	<path fill="#1CC934" d="M52.824,17.77c-1.209-1.095-3.223-0.921-4.26,0.229l-3.107,3.513l0,0L31.064,38.092
		c-0.172,0.229-0.288,0.46-0.288,0.748L30.085,45c-0.058,0.402,0.115,0.863,0.459,1.15c0.231,0.229,0.576,0.346,0.864,0.346
		c0.116,0,0.231,0,0.289-0.058L37.742,45c0.287-0.059,0.518-0.23,0.69-0.403l15.256-17.559l2.188-2.476
		c1.094-1.267,0.978-3.166-0.289-4.261L52.824,17.77z M50.521,19.784c0.173-0.229,0.346-0.173,0.52-0.058l2.82,2.532
		c0.172,0.115,0.172,0.347,0.057,0.52l-1.322,1.496l-3.396-2.994L50.521,19.784z M33.136,41.66l1.554,1.381l-1.727,0.404
		L33.136,41.66z M37.339,41.833l-3.397-2.993l13.472-15.543l3.396,2.993L37.339,41.833z"/>
	<path fill="#1CC934" d="M46.837,39.012c-0.748,0-1.324,0.575-1.324,1.324v9.441H14.311V21.569h25.388
		c0.748,0,1.324-0.575,1.324-1.324s-0.576-1.324-1.324-1.324H14.023c-1.324,0-2.36,1.095-2.36,2.359v28.728
		c0,1.324,1.094,2.359,2.36,2.359h31.721c1.323,0,2.358-1.093,2.358-2.359v-9.671C48.162,39.646,47.528,39.012,46.837,39.012z"/>
	<path fill="#1CC934" d="M18.053,31.644h5.411c0.749,0,1.325-0.575,1.325-1.323c0-0.749-0.576-1.325-1.325-1.325h-5.411
		c-0.749,0-1.324,0.576-1.324,1.325C16.729,31.01,17.304,31.644,18.053,31.644z"/>
	<path fill="#1CC934" d="M32.732,25.081c0-0.749-0.575-1.325-1.324-1.325H18.053c-0.749,0-1.324,0.576-1.324,1.325
		c0,0.748,0.575,1.324,1.324,1.324h13.356C32.157,26.405,32.732,25.829,32.732,25.081z"/>
	<path fill="#1CC934" d="M29.395,35.5c0-0.748-0.576-1.323-1.325-1.323h-9.786c-0.748,0-1.323,0.575-1.323,1.323
		c0,0.749,0.575,1.324,1.323,1.324h9.786C28.818,36.824,29.395,36.249,29.395,35.5z"/>
	<path fill="#1CC934" d="M18.283,42.063h3.167c0.749,0,1.324-0.576,1.324-1.325c0-0.748-0.575-1.323-1.324-1.323h-3.167
		c-0.748,0-1.323,0.575-1.323,1.323C16.96,41.487,17.535,42.063,18.283,42.063z"/>
	<path fill="#1CC934" d="M18.283,47.244h5.872c0.749,0,1.325-0.575,1.325-1.324c0-0.748-0.576-1.323-1.325-1.323h-5.872
		c-0.748,0-1.323,0.575-1.323,1.323C16.96,46.669,17.535,47.244,18.283,47.244z"/>
</g>
</svg>
