<?xml version="1.0" encoding="utf-8"?>
<!-- Generator: Adobe Illustrator 16.0.0, SVG Export Plug-In . SVG Version: 6.00 Build 0)  -->
<!DOCTYPE svg PUBLIC "-//W3C//DTD SVG 1.1//EN" "http://www.w3.org/Graphics/SVG/1.1/DTD/svg11.dtd">
<svg version="1.1" id="Layer_1" xmlns="http://www.w3.org/2000/svg" xmlns:xlink="http://www.w3.org/1999/xlink" x="0px" y="0px"
	 width="113.387px" height="113.387px" viewBox="0 0 113.387 113.387" enable-background="new 0 0 113.387 113.387"
	 xml:space="preserve">
<g>
	<path fill="#FFFFFF" d="M56.693,6.805c-27.509,0-49.89,22.381-49.89,49.891c0,27.509,22.381,49.888,49.89,49.888
		s49.89-22.379,49.89-49.888C106.583,29.186,84.203,6.805,56.693,6.805z M56.693,99.594c-23.654,0-42.9-19.246-42.9-42.898
		c0-3.801,0.502-7.629,1.435-11.141c0.195,0.037,0.396-0.08,0.603-0.08h0.591v3.398c0,1.451,1.317,2.629,2.77,2.629
		c0.246,0,0.548-0.045,0.772-0.107l5.528,5.49c0.551,0.553,1.461,0.553,2.015,0c0.551-0.549,0.561-1.441,0.009-1.994l-5.363-5.604
		c0.019-0.136,0.282-0.273,0.282-0.412v-0.84c0-1.134,0.651-1.56,1.781-2.56h3.288c0.619,0,1.186-0.047,1.679-0.342
		c0.06-0.035,0.119,0.004,0.176-0.033c0.115-0.08,0.217-0.135,0.322-0.227c0.046-0.043,0.099-0.058,0.143-0.103l0.122-0.11
		l11.3-11.295c1.253-1.255,1.253-3.287,0-4.539s-3.288-1.035-4.542,0.217l-2.188,2.406h-4.065v-3.398
		c0-0.055,0.353,0.393,0.349-0.609h4.573c0.87,0,1.573-0.635,1.573-1.502c0-0.869-0.704-1.504-1.573-1.504h-7.262
		c7.596-6.01,17.614-10.561,28.587-10.561c10.551,0,20.219,3.549,27.699,10.561h-3.588h-0.5h-5.033
		c-0.021,0-0.033-0.223-0.055-0.221c-0.318-0.016-0.646-0.025-0.893,0.221l-3.753,3.695c-0.461,0.463-0.462,1.184,0,1.646
		c0.462,0.461,1.212,0.447,1.674-0.016l2.966-3.15c0.021,0,0.039-0.172,0.061-0.172h1.773c-0.026,1.002-0.515,0.674-0.515,0.843
		v0.524c0,1.541-1.05,2.642-2.594,2.642h-2.687c-1.329,0-2.733,1.495-2.733,2.819v1.188h-0.607c-0.827,0-1.396,0.426-1.396,1.252
		c0,0.397,0,1.752,0,1.752c-1.001,0-1.252,0-1.685,0c-1.185,0-2.142,0.812-2.142,1.992c0,1.184,0.958,1.832,2.142,1.832
		c0.522,0,0.992,0.184,1.362-0.818c0.001,0,0.002,0,0.002,0l0.291,0.074l3.445-3.08h1.223l2.763,2.635
		c0.229,0.227,0.601,0.162,0.827-0.063c0.229-0.229,0.229-0.82,0-1.048l-2.301-2.524h1.664l0.651,0.842
		c1.294,1.293,3.393,1.199,4.685-0.092l0.655-0.75h2.854c0.107,0,0.594,0.36,0.594,0.348v1.709c0-0.002-0.335-0.053-0.363-0.053
		h-2.555c-0.815,0-1.479,0.688-1.479,1.504s0.662,1.502,1.479,1.502h2.555c0.028,0,0.363-0.029,0.363-0.031v1.066
		c-1.002,1.49-1.745,2.973-3.232,2.973h-6.736c-0.012,0-0.019-0.035-0.029-0.047L70.52,42.4c-1.292-1.293-3.387-1.295-4.682-0.002
		l-3.022,3.033c-0.009,0.008-0.019,0.043-0.029,0.043h-1.791c-1.826,0-3.501,1.461-3.501,3.289v6.545
		c0,1.824,1.675,3.188,3.501,3.188h6.427c2.427,1.002,4.098,2.504,5.1,4.932v11.971c0,1.826,1.193,3.134,3.022,3.134h5.156
		c1.829,0,2.841-1.308,2.841-3.134V63.824l6.363-6.123l0.232-0.119l0.129-0.068l0.214-0.006c0.525-0.586,1.075-1.354,1.075-2.201
		v-6.543c0-1.301-1.141-2.289-2.229-3.289h3.029c0.088,2.002,1.521,3.004,3.292,3.004h3.229c0.459,3.006,0.713,5.334,0.713,7.979
		C99.591,80.111,80.349,99.594,56.693,99.594z"/>
	<path fill="#FFFFFF" d="M65.51,33.484c0.49,0,1-0.397,1-0.887v-2.193c0-0.489-0.51-0.889-1-0.889c-0.489,0-1.002,0.398-1.002,0.889
		v2.193C64.508,33.086,65.021,33.484,65.51,33.484z"/>
	<path fill="#FFFFFF" d="M36.19,55.49h-4.792c-1.828,0-2.955,1.479-2.955,3.307V71.25c0,1.828,1.126,3.274,2.955,3.274h2.054v12.586
		c0,1.775,1.732,3.212,3.506,3.212s3.506-1.438,3.506-3.212v-7.575h-0.118c1.828,0,3.124-1.011,3.124-2.836v-2.175h0.963
		c1.829,0,3.044-1.446,3.044-3.274v-4.234c0-0.035,0.048-0.061,0.009-0.098L36.19,55.49z"/>
	<path fill="#FFFFFF" d="M59.323,22.432c0-1.799-1.46-3.004-3.262-3.004H52.17c-1.799,0-3.013,1.295-3.013,3.094
		c0,0.24-0.677,0.312,0.325,0.537v3.381c0,1.056,0.448,1.908,1.502,1.908c1.055,0,1.503-0.854,1.503-1.908v-1.002h3.574
		C57.862,25.438,59.323,24.232,59.323,22.432z"/>
	<path fill="#FFFFFF" d="M60.342,27.441h1.56c0.456,0,0.827-0.043,0.827-0.5c0-0.459-0.371-0.502-0.828-0.502h-1.558
		c-0.456,0-0.826,0.045-0.826,0.502C59.516,27.396,59.886,27.441,60.342,27.441z"/>
	<path fill="#FFFFFF" d="M43.729,27.129c0.511-0.51,0.511-1.338,0-1.853l-3.58-3.575c-0.512-0.513-1.337-0.513-1.852,0
		c-0.512,0.51-0.512,1.34,0,1.852l3.58,3.578C42.387,27.643,43.217,27.643,43.729,27.129z"/>
	<path fill="#FFFFFF" d="M89.053,69.012c-0.715,0-1.505,0.578-1.505,1.293v4.035c0,0.711,0.79,1.289,1.505,1.289
		c0.712,0,1.5-0.578,1.5-1.289v-4.035C90.554,69.59,89.765,69.012,89.053,69.012z"/>
</g>
</svg>
